# xmcd CD database file
#
# Track frame offsets:
#	150
#	13288
#	26502
#	38384
#	49859
#	85912
#	100472
#	113083
#	137137
#	147773
#	165798
#	190687
#	201948
#	214395
#	226738
#	237953
#	251813
#	267670
#	283798
#	305135
#	316229
#	328762
#	348511
#
# Disc length: 4804 seconds
#
# Revision: 0
# Processed by: cddbd v1.5.1PL0 Copyright (c) Steve Scherf et al.
# Submitted via: CDex 1.51
#
DISCID=5312c217
DTITLE=Dinah Washington - The Definitive (plus)
DYEAR=1900
DGENRE=Jazz
TTITLE0=01 - Evil Gal Blues
TTITLE1=02 - Embraceable You
TTITLE2=03 - New Blowtop Blues
TTITLE3=04 - Our Love Is Here To Stay
TTITLE4=06 - A Foggy Day
TTITLE5=07 - I Don't Hurt Anymore
TTITLE6=08 - Teach Me Tonight
TTITLE7=09 - Blue Gardenia
TTITLE8=10 - My Ideal
TTITLE9=11 - I'll Close My Eyes
TTITLE10=12 - All Of Me
TTITLE11=13 - What A Diff'rence A Day Made
TTITLE12=14 - Baby, You've Got What It Takes
TTITLE13=15 - Unforgettable
TTITLE14=16 - This Bitter Earth
TTITLE15=17 - Invitation
TTITLE16=18 - Drinking Again
TTITLE17=19 - Me And My Gin
TTITLE18=20 - For All We Know
TTITLE19=Dinah Washington, Brook Benton - A Rocking Good Way
TTITLE20=19 - Mad About The Boy
TTITLE21=21 - I Could Write A Book
TTITLE22=22 - Since I Fell For You
EXTD=
EXTT0=
EXTT1=
EXTT2=
EXTT3=
EXTT4=
EXTT5=
EXTT6=
EXTT7=
EXTT8=
EXTT9=
EXTT10=
EXTT11=
EXTT12=
EXTT13=
EXTT14=
EXTT15=
EXTT16=
EXTT17=
EXTT18=
EXTT19=
EXTT20=
EXTT21=
EXTT22=
PLAYORDER=
